<svg xmlns="http://www.w3.org/2000/svg" xmlns:xlink="http://www.w3.org/1999/xlink" width="500" zoomAndPan="magnify" viewBox="0 0 375 374.999991" height="500" preserveAspectRatio="xMidYMid meet" version="1.0"><defs><clipPath id="682ede1989"><path d="M 3.289062 164 L 371.507812 164 L 371.507812 293.957031 L 3.289062 293.957031 Z M 3.289062 164 " clip-rule="nonzero"/></clipPath><clipPath id="5a100e02e3"><path d="M 122 80.957031 L 253 80.957031 L 253 211 L 122 211 Z M 122 80.957031 " clip-rule="nonzero"/></clipPath><clipPath id="be111ba9c9"><path d="M 3.289062 164 L 140 164 L 140 293.957031 L 3.289062 293.957031 Z M 3.289062 164 " clip-rule="nonzero"/></clipPath><clipPath id="863bfa9bf7"><path d="M 35 164 L 206 164 L 206 293.957031 L 35 293.957031 Z M 35 164 " clip-rule="nonzero"/></clipPath><clipPath id="d1c09e8ac1"><path d="M 102 164 L 273 164 L 273 293.957031 L 102 293.957031 Z M 102 164 " clip-rule="nonzero"/></clipPath><clipPath id="58c8f4c29f"><path d="M 169 164 L 340 164 L 340 293.957031 L 169 293.957031 Z M 169 164 " clip-rule="nonzero"/></clipPath><clipPath id="67c50234a8"><path d="M 235 164 L 371.507812 164 L 371.507812 293.957031 L 235 293.957031 Z M 235 164 " clip-rule="nonzero"/></clipPath></defs><path fill="#b4dbf8" d="M 67.980469 167.222656 L 129.355469 167.222656 L 130.277344 169.738281 C 139.6875 192 161.722656 207.617188 187.398438 207.617188 C 213.078125 207.617188 235.109375 192 244.519531 169.738281 L 245.441406 167.222656 L 306.816406 167.222656 C 341.054688 167.222656 368.8125 194.988281 368.8125 229.242188 L 368.8125 274.789062 C 368.8125 283.886719 361.4375 291.265625 352.339844 291.265625 L 22.457031 291.265625 C 13.363281 291.265625 5.988281 283.886719 5.988281 274.789062 L 5.988281 229.242188 C 5.988281 194.988281 33.742188 167.222656 67.980469 167.222656 Z M 67.980469 167.222656 " fill-opacity="1" fill-rule="evenodd"/><g clip-path="url(#682ede1989)"><path stroke-linecap="round" transform="matrix(0.0586429, 0, 0, 0.0586502, 515.594851, 244.46307)" fill="none" stroke-linejoin="round" d="M -7632.877247 -1316.967168 L -6586.289246 -1316.967168 L -6570.569111 -1274.075172 C -6410.10383 -894.507644 -6034.352626 -628.230933 -5596.52021 -628.230933 C -5158.621183 -628.230933 -4782.93659 -894.507644 -4622.471309 -1274.075172 L -4606.751173 -1316.967168 L -3560.163173 -1316.967168 C -2976.320006 -1316.967168 -2502.984064 -843.556748 -2502.984064 -259.51961 L -2502.984064 517.065295 C -2502.984064 672.182468 -2628.745147 797.994551 -2783.881569 797.994551 L -8409.158851 797.994551 C -8564.228662 797.994551 -8689.989745 672.182468 -8689.989745 517.065295 L -8689.989745 -259.51961 C -8689.989745 -843.556748 -8216.720413 -1316.967168 -7632.877247 -1316.967168 Z M -7632.877247 -1316.967168 " stroke="#0d0d0d" stroke-width="91.667" stroke-opacity="1" stroke-miterlimit="10"/></g><g clip-path="url(#5a100e02e3)"><path stroke-linecap="round" transform="matrix(0.0586429, 0, 0, 0.0586502, 515.594851, 244.46307)" fill="none" stroke-linejoin="round" d="M -6654.032373 -1685.012467 C -6654.032373 -2268.783195 -6180.76304 -2741.993808 -5596.986485 -2741.993808 C -5013.20993 -2741.993808 -4540.007208 -2268.783195 -4540.007208 -1685.012467 C -4540.007208 -1101.241739 -5013.20993 -628.031126 -5596.986485 -628.031126 C -6180.76304 -628.031126 -6654.032373 -1101.241739 -6654.032373 -1685.012467 Z M -6654.032373 -1685.012467 " stroke="#0d0d0d" stroke-width="91.667" stroke-opacity="1" stroke-miterlimit="10"/></g><path fill="#ffff66" d="M 56.722656 227.171875 L 61.898438 237.652344 C 62.328125 238.523438 63.160156 239.128906 64.121094 239.269531 L 75.695312 240.949219 C 78.121094 241.300781 79.089844 244.277344 77.335938 245.988281 L 68.960938 254.144531 C 68.265625 254.824219 67.949219 255.800781 68.113281 256.757812 L 70.089844 268.277344 C 70.503906 270.691406 67.96875 272.53125 65.796875 271.398438 L 55.445312 265.953125 C 54.585938 265.5 53.554688 265.5 52.695312 265.953125 L 42.34375 271.390625 C 40.175781 272.53125 37.640625 270.691406 38.050781 268.273438 L 40.03125 256.753906 C 40.195312 255.796875 39.875 254.816406 39.179688 254.140625 L 30.804688 245.980469 C 29.050781 244.273438 30.019531 241.296875 32.441406 240.941406 L 44.019531 239.261719 C 44.980469 239.121094 45.8125 238.519531 46.246094 237.648438 L 51.417969 227.164062 C 52.503906 224.976562 55.636719 224.976562 56.722656 227.171875 Z M 56.722656 227.171875 " fill-opacity="1" fill-rule="evenodd"/><g clip-path="url(#be111ba9c9)"><path stroke-linecap="butt" transform="matrix(0.0586429, 0, 0, 0.0586502, 515.594851, 244.46307)" fill="none" stroke-linejoin="miter" d="M -7824.84941 -294.818924 L -7736.590175 -116.124473 C -7729.262993 -101.27212 -7715.074905 -90.948736 -7698.688662 -88.551046 L -7501.321029 -59.91198 C -7459.955757 -53.917757 -7443.436293 -3.166668 -7473.344517 26.005217 L -7616.157951 165.071193 C -7628.014663 176.660025 -7633.410133 193.310645 -7630.612482 209.628252 L -7596.907446 406.038962 C -7589.846707 447.199294 -7633.077079 478.569062 -7670.112653 459.254343 L -7846.631123 366.410487 C -7861.285486 358.6846 -7878.870723 358.6846 -7893.525086 366.410487 L -8070.043556 459.121138 C -8107.012519 478.569062 -8150.242891 447.199294 -8143.248763 405.97236 L -8109.477116 209.561649 C -8106.679465 193.244042 -8112.141546 176.52682 -8123.998259 165.004591 L -8266.811692 25.872012 C -8296.719916 -3.233271 -8280.200452 -53.98436 -8238.901791 -60.045185 L -8041.467547 -88.684251 C -8025.081305 -91.081941 -8010.893216 -101.338722 -8003.499424 -116.191075 L -7915.306799 -294.952129 C -7896.789013 -332.249517 -7843.367196 -332.249517 -7824.84941 -294.818924 Z M -7824.84941 -294.818924 " stroke="#0d0d0d" stroke-width="91.667" stroke-opacity="1" stroke-miterlimit="8"/></g><path fill="#ffff66" d="M 123.398438 227.171875 L 128.574219 237.652344 C 129.003906 238.523438 129.835938 239.128906 130.800781 239.269531 L 142.375 240.949219 C 144.796875 241.300781 145.765625 244.277344 144.011719 245.988281 L 135.636719 254.144531 C 134.941406 254.824219 134.625 255.800781 134.789062 256.757812 L 136.765625 268.277344 C 137.179688 270.691406 134.644531 272.53125 132.472656 271.398438 L 122.121094 265.953125 C 121.261719 265.5 120.234375 265.5 119.371094 265.953125 L 109.023438 271.390625 C 106.851562 272.53125 104.320312 270.691406 104.730469 268.273438 L 106.707031 256.753906 C 106.871094 255.796875 106.550781 254.816406 105.855469 254.140625 L 97.484375 245.980469 C 95.726562 244.273438 96.695312 241.296875 99.121094 240.941406 L 110.695312 239.261719 C 111.65625 239.121094 112.492188 238.519531 112.921875 237.648438 L 118.097656 227.164062 C 119.183594 224.976562 122.3125 224.976562 123.398438 227.171875 Z M 123.398438 227.171875 " fill-opacity="1" fill-rule="evenodd"/><g clip-path="url(#863bfa9bf7)"><path stroke-linecap="butt" transform="matrix(0.0586429, 0, 0, 0.0586502, 515.594851, 244.46307)" fill="none" stroke-linejoin="miter" d="M -6687.87063 -294.818924 L -6599.611395 -116.124473 C -6592.284213 -101.27212 -6578.096125 -90.948736 -6561.643271 -88.551046 L -6364.275639 -59.91198 C -6322.976978 -53.917757 -6306.457513 -3.166668 -6336.365737 26.005217 L -6479.179171 165.071193 C -6491.035883 176.660025 -6496.431354 193.310645 -6493.633702 209.628252 L -6459.928666 406.038962 C -6452.867927 447.199294 -6496.0983 478.569062 -6533.133873 459.254343 L -6709.652343 366.410487 C -6724.306707 358.6846 -6741.825332 358.6846 -6756.546307 366.410487 L -6932.998166 459.121138 C -6970.033739 478.569062 -7013.197501 447.199294 -7006.203373 405.97236 L -6972.498337 209.561649 C -6969.700686 193.244042 -6975.162767 176.52682 -6987.019479 165.004591 L -7129.766302 25.872012 C -7159.741137 -3.233271 -7143.221672 -53.98436 -7101.856401 -60.045185 L -6904.488768 -88.684251 C -6888.102525 -91.081941 -6873.847826 -101.338722 -6866.520644 -116.191075 L -6778.261409 -294.952129 C -6759.743622 -332.249517 -6706.388417 -332.249517 -6687.87063 -294.818924 Z M -6687.87063 -294.818924 " stroke="#0d0d0d" stroke-width="91.667" stroke-opacity="1" stroke-miterlimit="8"/></g><path fill="#ffff66" d="M 190.015625 227.171875 L 195.191406 237.652344 C 195.625 238.523438 196.457031 239.128906 197.417969 239.269531 L 208.992188 240.949219 C 211.417969 241.300781 212.386719 244.277344 210.632812 245.988281 L 202.257812 254.144531 C 201.5625 254.824219 201.242188 255.800781 201.40625 256.757812 L 203.382812 268.277344 C 203.800781 270.691406 201.265625 272.53125 199.09375 271.398438 L 188.742188 265.953125 C 187.878906 265.5 186.851562 265.5 185.992188 265.953125 L 175.640625 271.390625 C 173.46875 272.53125 170.9375 270.691406 171.347656 268.273438 L 173.324219 256.753906 C 173.488281 255.796875 173.171875 254.816406 172.472656 254.140625 L 164.101562 245.980469 C 162.347656 244.273438 163.3125 241.296875 165.738281 240.941406 L 177.3125 239.261719 C 178.277344 239.121094 179.109375 238.519531 179.539062 237.648438 L 184.714844 227.164062 C 185.800781 224.976562 188.933594 224.976562 190.015625 227.171875 Z M 190.015625 227.171875 " fill-opacity="1" fill-rule="evenodd"/><g clip-path="url(#d1c09e8ac1)"><path stroke-linecap="butt" transform="matrix(0.0586429, 0, 0, 0.0586502, 515.594851, 244.46307)" fill="none" stroke-linejoin="miter" d="M -5551.891012 -294.818924 L -5463.631777 -116.124473 C -5456.237984 -101.27212 -5442.049896 -90.948736 -5425.663653 -88.551046 L -5228.29602 -59.91198 C -5186.930749 -53.917757 -5170.411284 -3.166668 -5200.319508 26.005217 L -5343.132942 165.071193 C -5354.989654 176.660025 -5360.451735 193.310645 -5357.654084 209.628252 L -5323.949048 406.038962 C -5316.821698 447.199294 -5360.052071 478.569062 -5397.087644 459.254343 L -5573.606114 366.410487 C -5588.327088 358.6846 -5605.845714 358.6846 -5620.500078 366.410487 L -5797.018548 459.121138 C -5834.054121 478.569062 -5877.217883 447.199294 -5870.223755 405.97236 L -5836.518718 209.561649 C -5833.721067 193.244042 -5839.116537 176.52682 -5851.039861 165.004591 L -5993.786684 25.872012 C -6023.694907 -3.233271 -6007.242054 -53.98436 -5965.876782 -60.045185 L -5768.509149 -88.684251 C -5752.056296 -91.081941 -5737.868207 -101.338722 -5730.541026 -116.191075 L -5642.281791 -294.952129 C -5623.764004 -332.249517 -5570.342188 -332.249517 -5551.891012 -294.818924 Z M -5551.891012 -294.818924 " stroke="#0d0d0d" stroke-width="91.667" stroke-opacity="1" stroke-miterlimit="8"/></g><path fill="#ffff66" d="M 256.691406 227.171875 L 261.867188 237.652344 C 262.300781 238.523438 263.132812 239.128906 264.09375 239.269531 L 275.667969 240.949219 C 278.09375 241.300781 279.0625 244.277344 277.308594 245.988281 L 268.933594 254.144531 C 268.238281 254.824219 267.917969 255.800781 268.085938 256.757812 L 270.0625 268.277344 C 270.476562 270.691406 267.941406 272.53125 265.769531 271.398438 L 255.417969 265.953125 C 254.558594 265.5 253.527344 265.5 252.667969 265.953125 L 242.316406 271.390625 C 240.148438 272.53125 237.613281 270.691406 238.023438 268.273438 L 240 256.753906 C 240.164062 255.796875 239.847656 254.816406 239.152344 254.140625 L 230.777344 245.980469 C 229.023438 244.273438 229.992188 241.296875 232.414062 240.941406 L 243.992188 239.261719 C 244.953125 239.121094 245.785156 238.519531 246.21875 237.648438 L 251.390625 227.164062 C 252.476562 224.976562 255.609375 224.976562 256.691406 227.171875 Z M 256.691406 227.171875 " fill-opacity="1" fill-rule="evenodd"/><g clip-path="url(#58c8f4c29f)"><path stroke-linecap="butt" transform="matrix(0.0586429, 0, 0, 0.0586502, 515.594851, 244.46307)" fill="none" stroke-linejoin="miter" d="M -4414.912232 -294.818924 L -4326.652997 -116.124473 C -4319.259205 -101.27212 -4305.071116 -90.948736 -4288.684873 -88.551046 L -4091.317241 -59.91198 C -4049.951969 -53.917757 -4033.432505 -3.166668 -4063.340728 26.005217 L -4206.154162 165.071193 C -4218.010875 176.660025 -4223.472956 193.310645 -4220.608694 209.628252 L -4186.903657 406.038962 C -4179.842919 447.199294 -4223.073291 478.569062 -4260.108864 459.254343 L -4436.627335 366.410487 C -4451.281698 358.6846 -4468.866934 358.6846 -4483.521298 366.410487 L -4660.039768 459.121138 C -4697.008731 478.569062 -4740.239103 447.199294 -4733.244975 405.97236 L -4699.539939 209.561649 C -4696.742288 193.244042 -4702.137758 176.52682 -4713.99447 165.004591 L -4856.807904 25.872012 C -4886.716128 -3.233271 -4870.196664 -53.98436 -4828.898003 -60.045185 L -4631.463759 -88.684251 C -4615.077516 -91.081941 -4600.889428 -101.338722 -4593.495635 -116.191075 L -4505.303011 -294.952129 C -4486.785224 -332.249517 -4433.363408 -332.249517 -4414.912232 -294.818924 Z M -4414.912232 -294.818924 " stroke="#0d0d0d" stroke-width="91.667" stroke-opacity="1" stroke-miterlimit="8"/></g><path fill="#ffff66" d="M 320.722656 225.519531 L 320.722656 265.613281 L 320.71875 265.613281 C 320.25 265.613281 319.777344 265.726562 319.34375 265.953125 L 308.996094 271.390625 C 306.828125 272.527344 304.292969 270.6875 304.703125 268.269531 L 306.679688 256.75 C 306.847656 255.792969 306.527344 254.816406 305.832031 254.136719 L 297.460938 245.976562 C 295.707031 244.269531 296.671875 241.292969 299.097656 240.9375 L 310.667969 239.257812 C 311.632812 239.117188 312.464844 238.515625 312.894531 237.644531 L 318.070312 227.160156 C 318.613281 226.066406 319.667969 225.519531 320.722656 225.519531 Z M 320.722656 225.519531 " fill-opacity="1" fill-rule="evenodd"/><g clip-path="url(#67c50234a8)"><path stroke-linecap="butt" transform="matrix(0.0586429, 0, 0, 0.0586502, 515.594851, 244.46307)" fill="none" stroke-linejoin="miter" d="M -3277.866842 -294.818924 L -3189.607607 -116.124473 C -3182.280425 -101.27212 -3168.092337 -90.948736 -3151.639483 -88.551046 L -2954.27185 -59.91198 C -2912.973189 -53.917757 -2896.453725 -3.166668 -2926.361949 26.005217 L -3069.175383 165.071193 C -3081.032095 176.660025 -3086.427565 193.310645 -3083.629914 209.628252 L -3049.924878 406.038962 C -3042.864139 447.199294 -3086.094512 478.569062 -3123.130085 459.254343 L -3299.648555 366.410487 C -3314.302919 358.6846 -3331.821544 358.6846 -3346.542518 366.410487 L -3523.060988 459.121138 C -3560.029951 478.569062 -3603.260324 447.199294 -3596.199585 405.97236 L -3562.494549 209.561649 C -3559.696897 193.244042 -3565.158978 176.52682 -3577.015691 165.004591 L -3719.762514 25.872012 C -3749.737348 -3.233271 -3733.217884 -53.98436 -3691.852612 -60.045185 L -3494.48498 -88.684251 C -3478.098737 -91.081941 -3463.910648 -101.338722 -3456.516856 -116.191075 L -3368.257621 -294.952129 C -3349.739834 -332.249517 -3296.384629 -332.249517 -3277.866842 -294.818924 Z M -3277.866842 -294.818924 " stroke="#0d0d0d" stroke-width="91.667" stroke-opacity="1" stroke-miterlimit="8"/></g></svg>